{"title":"Eurovision Song Contest 2012 (1st Semifinal) 720p","uid":7293326,"size":6995304073,"categoryP":"video","categoryS":"hd___tv_shows","magnet":"?xt=urn:btih:0f40b6703446d56686e5e27e49174fdefa82b72f&amp;dn=Eurovision+Song+Contest+2012+%281st+Semifinal%29+720p&amp;tr=udp%3A%2F%2Ftracker.openbittorrent.com%3A80&amp;tr=udp%3A%2F%2Fopen.demonii.com%3A1337&amp;tr=udp%3A%2F%2Ftracker.coppersurfer.tk%3A6969&amp;tr=udp%3A%2F%2Fexodus.desync.com%3A6969","seeders":0,"leechers":1,"uploader":"andreyyshore","files":1,"time":1337807457,"description":"Source that have been used for encoding:\nVIDEO SOURCE: MPEG2 4:2:2, 1080/50i, 35 Mbps\nAUDIO SOURCE: Dolby E 5.1, 24-bit\n\nGeneral\nUnique ID                        : 205087561721039987582590529953496824066 (0x9A4A6D796BD8BA448FDE64763A9FF902)\nFormat                           : Matroska\nFormat version                   : Version 2\nFile size                        : 6.51 GiB\nDuration                         : 1h 45mn\nOverall bit rate                 : 8 813 Kbps\nEncoded date                     : UTC 2012-05-23 05:29:48\nWriting application              : mkvmerge v5.5.0 ('Healer') built on Apr  6 2012 21:43:24\nWriting library                  : libebml v1.2.3 + libmatroska v1.3.0\n\nVideo\nID                               : 1\nFormat                           : AVC\nFormat/Info                      : Advanced Video Codec\nFormat profile                   : &lt;a class=&quot;__cf_email__&quot; href=&quot;/cdn-cgi/l/email-protection&quot; data-cfemail=&quot;0840616f6048443c2639&quot;&gt;[email&amp;#160;protected]&lt;/a&gt;&lt;script cf-hash='f9e31' type=&quot;text/javascript&quot;&gt;\n/* &lt;![CDATA[ */!function(){try{var t=&quot;currentScript&quot;in document?document.currentScript:function(){for(var t=document.getElementsByTagName(&quot;script&quot;),e=t.length;e--;)if(t[e].getAttribute(&quot;cf-hash&quot;))return t[e]}();if(t&amp;&amp;t.previousSibling){var e,r,n,i,c=t.previousSibling,a=c.getAttribute(&quot;data-cfemail&quot;);if(a){for(e=&quot;&quot;,r=parseInt(a.substr(0,2),16),n=2;a.length-n;n+=2)i=parseInt(a.substr(n,2),16)^r,e+=String.fromCharCode(i);e=document.createTextNode(e),c.parentNode.replaceChild(e,c)}}}catch(u){}}();/* ]]&gt; */&lt;/script&gt;\nFormat settings, CABAC           : Yes\nFormat settings, ReFrames        : 5 frames\nCodec ID                         : V_MPEG4/ISO/AVC\nDuration                         : 1h 45mn\nBit rate                         : 7 128 Kbps\nWidth                            : 1 280 pixels\nHeight                           : 720 pixels\nDisplay aspect ratio             : 16:9\nFrame rate                       : 50.000 fps\nColor space                      : YUV\nChroma subsampling               : 4:2:0\nBit depth                        : 8 bits\nScan type                        : Progressive\nBits/(Pixel*Frame)               : 0.155\nStream size                      : 5.27 GiB (81%)\nWriting library                  : x264 core 120 r2164 da19765\nLanguage                         : English\n\nAudio\nID                               : 2\nFormat                           : DTS\nFormat/Info                      : Digital Theater Systems\nCodec ID                         : A_DTS\nDuration                         : 1h 45mn\nBit rate mode                    : Constant\nBit rate                         : 1 510 Kbps\nChannel(s)                       : 6 channels\nChannel positions                : Front: L C R, Side: L R, LFE\nSampling rate                    : 48.0 KHz\nBit depth                        : 24 bits\nCompression mode                 : Lossy\nDelay relative to video          : 3ms\nStream size                      : 1.12 GiB (17%)\nLanguage                         : English\n","torrent":{"xt":"urn:btih:0f40b6703446d56686e5e27e49174fdefa82b72f","amp;dn":"Eurovision+Song+Contest+2012+%281st+Semifinal%29+720p","amp;tr":["udp%3A%2F%2Ftracker.openbittorrent.com%3A80","udp%3A%2F%2Fopen.demonii.com%3A1337","udp%3A%2F%2Ftracker.coppersurfer.tk%3A6969","udp%3A%2F%2Fexodus.desync.com%3A6969"],"infoHash":"0f40b6703446d56686e5e27e49174fdefa82b72f","infoHashBuffer":{"type":"Buffer","data":[15,64,182,112,52,70,213,102,134,229,226,126,73,23,79,222,250,130,183,47]},"announce":[],"urlList":[]}}